<?xml version="1.0" encoding="UTF-8" standalone="no"?>
<!-- Generator: Adobe Illustrator 19.0.0, SVG Export Plug-In . SVG Version: 6.00 Build 0)  -->

<svg
   version="1.1"
   id="layer"
   x="0px"
   y="0px"
   viewBox="-153 -46 459.70001 140.39999"
   xml:space="preserve"
   sodipodi:docname="logo.svg"
   width="459.70001"
   height="140.39999"
   inkscape:version="1.1.1 (1:1.1+202109281943+c3084ef5ed)"
   xmlns:inkscape="http://www.inkscape.org/namespaces/inkscape"
   xmlns:sodipodi="http://sodipodi.sourceforge.net/DTD/sodipodi-0.dtd"
   xmlns="http://www.w3.org/2000/svg"
   xmlns:svg="http://www.w3.org/2000/svg"><defs
   id="defs89" /><sodipodi:namedview
   id="namedview87"
   pagecolor="#ffffff"
   bordercolor="#111111"
   borderopacity="1"
   inkscape:pageshadow="0"
   inkscape:pageopacity="0"
   inkscape:pagecheckerboard="1"
   showgrid="false"
   inkscape:zoom="0.75306748"
   inkscape:cx="303.42566"
   inkscape:cy="160.67617"
   inkscape:current-layer="layer" />
<style
   type="text/css"
   id="style2">
	.st0{fill:#27587F;}
</style>
<path
   class="st0"
   d="m 81.5,-45.4 c -0.2,-0.2 -0.5,-0.5 -1,-0.5 H 55.7 c -1.7,0 -3.2,1.1 -3.7,2.8 L 30,35.4 28.1,42.1 26.2,35.4 3.7,-44.9 c -0.2,-0.6 -0.7,-1 -1.3,-1 h -28.1 c -1.7,0 -3.2,1.1 -3.7,2.8 l -10.6,38.3 -11.4,40.6 -1.9,6.7 -1.9,-6.7 -15.9,-57 -6.6,-23.7 c -0.2,-0.6 -0.7,-1 -1.2,-1 0,0 -0.1,0 -0.1,0 -4.5,0.4 -16,1.8 -25.6,4.9 -0.7,0.2 -1,0.9 -0.9,1.6 l 36.9,130.8 c 0.5,1.6 2,2.8 3.7,2.8 h 23.8 c 1.7,0 3.2,-1.1 3.7,-2.8 l 23.2,-82.8 1.9,-6.7 1.9,6.7 23.2,82.9 c 0.5,1.6 2,2.8 3.7,2.8 H 40 c 1.7,0 3.2,-1.1 3.7,-2.8 l 38,-135.9 c 0.2,-0.4 0,-0.8 -0.2,-1"
   id="path4"
   style="fill:#ffffff;fill-opacity:1" />
<path
   class="st0"
   d="m -124.5,-30.4 c -0.1,0 -0.1,0 -0.1,0 l -0.7,0.3 c -17.1,9 -27.7,26.7 -27.7,46.3 v 75.4 c 0,1.5 1.3,2.8 2.8,2.8 h 23.2 c 1.5,0 2.8,-1.3 2.8,-2.8 V -30.1 c 0,-0.1 -0.1,-0.2 -0.1,-0.2 -0.1,-0.1 -0.2,-0.1 -0.2,-0.1"
   id="path6"
   style="fill:#ffffff;fill-opacity:1" />
<path
   class="st0"
   d="m 303.9,-46 h -23.2 c -1.5,0 -2.8,1.3 -2.8,2.8 V 78.6 c 0,0.1 0.1,0.2 0.1,0.2 0.1,0 0.1,0 0.2,0 0.1,0 0.1,0 0.1,0 l 0.7,-0.3 c 17.1,-9 27.7,-26.7 27.7,-46.3 v -75.3 c 0,-1.6 -1.3,-2.9 -2.8,-2.9"
   id="path8"
   style="fill:#ffffff;fill-opacity:1" />
<path
   class="st0"
   d="m 222.3,-43.1 c -0.5,-1.6 -2,-2.8 -3.7,-2.8 h -23.8 c -1.7,0 -3.2,1.1 -3.7,2.8 l -23.1,82.9 -1.9,6.7 -1.9,-6.7 -23.2,-83 c -0.5,-1.6 -2,-2.8 -3.7,-2.8 h -23.8 c -1.7,0 -3.2,1.1 -3.7,2.8 l -38,135.9 c -0.2,0.5 0.1,0.9 0.2,1.1 0.2,0.2 0.5,0.5 1,0.5 h 25 c 1.7,0 3.2,-1.1 3.7,-2.8 l 22,-78.5 1.9,-6.7 1.9,6.7 22.5,80.3 c 0.2,0.6 0.7,0.9 1.3,0.9 h 28.2 c 1.7,0 3.2,-1.1 3.7,-2.8 l 10.7,-38.3 11.4,-40.6 1.9,-6.7 1.9,6.7 15.9,57 6.6,23.7 c 0.2,0.6 0.7,1 1.2,1 0,0 0.1,0 0.1,0 4.5,-0.4 16,-1.8 25.6,-4.9 0.7,-0.2 1,-0.9 0.9,-1.6 z"
   id="path10"
   style="fill:#ffffff;fill-opacity:1" />





































</svg>
