<svg id="svg868" width="19.927mm" height="15.875mm" version="1.1" viewBox="0 0 19.927 15.875" xmlns="http://www.w3.org/2000/svg">
 <g id="layer1" transform="translate(-43.413,-138.14)" fill="#e8e7e7" stroke="#333">
  <path id="ken" d="m48.706 153.75c-0.80626 0.03-0.31713-0.94219-0.30143-1.2852-0.29367-0.47412 0.42817-1.2811-0.38899-0.73619-0.42566 0.2577-0.86272-0.0298-1.2385 0.38022-0.75313-0.44404-0.45472 1.1134-1.1849 0.73274-0.42479-0.39417-0.69232-0.83023-1.1145-1.1814-0.26928 0.39004-0.63534-0.35338-0.3675-0.60353 0.20625-0.33849 0.5494-0.86989-0.13917-0.87532-0.47121-0.39938-0.3416-0.6005 0.14851-0.65775 0.2563-0.35767 0.96295 0.0446 0.97447-0.43969 0.13974 0.46272 0.88506 0.0546 1.2678 0.0734 0.65252-0.33189 1.1181-0.63948 1.867-0.56068 0.65215-0.7754 1.608 0.1379 2.3253-0.16779 0.25756-0.31775 0.92483 0.12828 1.317 0.043 0.58134-0.0811 1.3732-0.48307 1.7081-0.94723-0.11386-0.43934 1.1163-0.62127 0.58163-1.2345 0.29623-0.49873 0.5812-1.2653 1.2212-1.48 0.33688-0.36905 0.82786-0.69582 1.085-1.1849 0.22276-0.57623 0.93869-0.99856 1.1499-1.5368 0.18316-0.55437 0.75196-0.64022 1.1078-0.84682-0.0024-0.39472 0.44393-1.0205 0.91388-1.242 0.56062-0.43358 1.0938-0.94488 1.5747-1.448 0.70086-0.47501 1.1439 0.32601 1.727 0.61769 0.55488 0.63961-0.71749 0.85499-0.79009 1.1792-0.24528 0.34575-0.62991 1.0694-1.1435 1.0505-0.33815 0.55755-1.2375 1.0071-0.78319 1.7357 0.22628 0.4602-0.22898 0.96979-0.39874 1.3028-0.2164 0.4245-0.84237 0.73575-0.24336 1.1488-0.0163 0.3919-0.76661 0.77426-0.0957 1.0534 0.4199 0.4916 1.0302 0.71052 1.3706 1.3093-0.51189 0.53941 0.89223 0.54627 0.21512 1.1695 0.0717 0.68705 0.90362 0.97191 1.0239 1.5812 0.61121 0.0665 0.34518 0.71497 0.45389 1.1424-0.08809 0.83383-0.9416 0.48845-1.4595 0.67255-0.66187-0.4308-1.0038 0.35903-1.6404 0.33164-0.52111-0.24684-0.86631-0.5774-1.3464-0.5466-0.35754 0.31809-0.75449-0.39306-1.17-0.24516-0.58485-0.74565-0.32415 0.88591-1.16 0.50023-0.54778 0.33771-0.99711-0.84077-1.6913-0.48931-0.83899-0.43252-1.1566 0.82643-1.8863 0.79894-0.39117 0.13985-1.0761-0.41618-1.4254 0.28782-0.14178 0.81785-0.94569-0.43734-1.3479 0.12359-0.23038 0.23909-0.61625 0.0506-0.7159 0.47415z" fill="#e8e7e7" stroke="none" stroke-width=".52917"/>
 </g>
</svg>
