<svg id="svg868" width="20.008mm" height="15.838mm" version="1.1" viewBox="0 0 20.008 15.838" xmlns="http://www.w3.org/2000/svg">
 <path id="mli" d="m19.656 0.364c0.3013 0.48616-0.19991 0.73358-0.16453 1.2761 0.39479 0.18266-0.23878 0.48495 0.01569 0.7776 0.09603 0.33218-0.31549 0.38804 0.01112 0.66342 0.121 0.50543-0.08382 0.7029-0.66036 0.6361-0.32802-0.10363-0.82745-0.40142-0.49467 0.23181 0.1996 0.47072-0.31734 0.47427-0.47548 0.76328-0.32094 0.21604-0.93046 0.07345-1.1028 0.37926-0.17391-0.42227-0.87057-0.65373-0.61756-0.03979-0.35186 0.0043-0.76794 0.10933-0.28197 0.32338 0.46552 0.17485-0.31902 0.25542-0.35866 0.03758-0.52521-0.08713-0.549 0.09901-0.64071 0.37769-0.37585 0.28682-0.88208 0.3227-0.97175 0.85433-0.15124 0.3316-1.0029 0.37096-0.65684 0.80768-0.01916 0.43576-0.57564 0.63406-0.6624 1.0028-0.29012 0.32113-0.17433 0.75068-0.49584 1.0611-0.13088 0.37731 0.19057 0.8131-0.12112 1.1172-0.1469 0.2438-0.54834 0.57944-0.87765 0.79249-0.74944-0.02656-0.08903 0.79376-0.61112 0.86414-0.42838 0.06891-0.38148 0.87517-0.71243 0.74165-0.43594-0.06271-0.55314 0.5405-0.54668 0.83777 0.05761 0.60439-0.60363 0.87877-0.92803 0.40226-0.37624 0.3031-0.38065-0.23266-0.65928-0.42158-0.16486 0.2846-0.24634 0.72398-0.67185 0.47405-0.51087 0.10396-0.23017 0.81484-0.71832 0.77596-0.29637 0.17741-0.88807-0.28754-0.76018 0.24364-0.28286 0.21239-0.56674 0.38908-0.87718 0.0099-0.06313-0.345-0.53436 0.38472-0.44033-0.17219-0.36511-0.49925-0.9041-0.11618-1.4342-0.18282-0.17349-0.34555-0.43234-0.32779-0.6719-0.51626-0.14541 0.4778-0.27618 0.30186-0.22155-0.05393-0.36032-0.1971-0.48425-0.73975-0.84722-1.004 0.15535-0.55825-0.49312-0.64662-0.58818-0.88254 0.29745 0.03632 0.44575 0.02845 0.38904-0.3972-0.20214-0.2463 0.62043-0.35002 0.25226-0.67794 0.33066 0.05359 0.38359-0.55917 0.69311-0.25154 0.14959-0.36416 0.36219-0.60507 0.70609-0.58323 0.26905-0.19119 0.38523-0.09486 0.76232 0.01926 0.02135 0.39576 0.63004 0.58926 0.74229 0.28609 0.45049 0.1778 0.44297-0.55983 0.7549-0.28991 0.28574-0.02422 0.42546-0.145 0.62075-0.37275-0.27101-0.20068-0.34321-0.58406 0.1091-0.6214 0.38358 0.21615 0.47197-0.37337 0.52879-0.59696-0.13935-0.20201 0.6526-0.46431 0.3503-0.85057 0.13527-0.28304 0.63245-0.28748 0.71163-0.1001 0.26464-0.25154 0.62991-0.02659 0.87694-0.41105 0.43958-0.11521 0.74083-0.40475 0.61172-0.81968-0.20017-0.10526-0.59365-0.91721 0.05143-0.8819 0.42696 0.14741 0.55184-0.11309 0.47697-0.38482 0.48754-0.02584 0.19964-0.54443 0.0024-0.71807 0.28453-0.47621 1.0183-0.58248 1.491-0.35938 0.24278-0.19715 1.1197-0.32692 0.8898-0.7065 0.46284-0.26336-0.26038-0.53189 0.4173-0.58504 0.43975-0.05945 0.92454-0.32577 1.4276-0.44874 0.447-0.23572 0.37189 0.2787 0.93861-0.05296 0.35127-0.11248 0.4951 0.37217 0.78845 0.09112 0.3571 0.29857 1.1058-0.1615 1.6025-0.21264 0.31972-0.40717 1.5279-0.14311 1.1944-0.79623-0.0706-0.4298 0.41649-0.62216 0.50469-0.93579 0.16264-0.38022 0.33647-0.63282 0.85498-0.32864-0.19332 0.59222 0.49779 0.06401 0.49436-0.19146z" fill="#e8e7e7" stroke="#333" stroke-width="0"/>
</svg>
