<svg viewBox="0 0 1024 140" preserveAspectRatio="none" xmlns="http://www.w3.org/2000/svg" xml:space="preserve" style="fill-rule:evenodd;clip-rule:evenodd;stroke-linecap:round;stroke-linejoin:round;stroke-miterlimit:1.5"><g transform="scale(.9917 .86086)"><path style="fill:none" d="M0 0h1032.56v162.628H0z"/><clipPath id="a"><path d="M0 0h1032.56v162.628H0z"/></clipPath><g clip-path="url(#a)"><path style="fill:#fff" d="M0 0h1024v140H0z" transform="matrix(1.00836 0 0 -1.16163 0 134.749)"/><path d="m0 99.599 1024-52.3" style="fill:none;stroke:url(#b);stroke-width:1px" transform="matrix(1.00836 0 0 -1.16163 0 141.719)"/><path d="M1024 70V0H0v106.599L1024 70Z" style="fill:url(#c)" transform="matrix(1.00836 0 0 -1.16163 0 134.749)"/><path d="M1024 33V0H0v106.599L1024 33Z" style="fill:#f4f4f5" transform="matrix(1.00836 0 0 -1.16163 0 162.628)"/></g></g><defs><linearGradient id="b" x1="0" y1="0" x2="1" y2="0" gradientUnits="userSpaceOnUse" gradientTransform="matrix(1024 -35 35 1024 0 104)"><stop offset="0" style="stop-color:#0089db;stop-opacity:.62"/><stop offset=".49" style="stop-color:#0089db;stop-opacity:.150745"/><stop offset="1" style="stop-color:#0089db;stop-opacity:0"/></linearGradient><linearGradient id="c" x1="0" y1="0" x2="1" y2="0" gradientUnits="userSpaceOnUse" gradientTransform="matrix(1024 -1 1 1024 0 99)"><stop offset="0" style="stop-color:#f4f4f5;stop-opacity:.5"/><stop offset=".49" style="stop-color:#f4f4f5;stop-opacity:.47451"/><stop offset="1" style="stop-color:#f4f4f5;stop-opacity:.4"/></linearGradient></defs></svg>