<svg id="svg106" version="1.1" viewBox="0 0 56.7 56.7" xmlns="http://www.w3.org/2000/svg">
 <defs id="defs4">
  <style id="style2">.cls-1{fill:#fff;}</style>
 </defs>
 <path id="path6" class="cls-1" d="m28.36 56.7a28.35 28.35 0 1 1 28.34-28.34 28.38 28.38 0 0 1-28.34 28.34zm-0.11-39.52s2.3 2.43 2.3 4.37a2.4 2.4 0 0 1-2.19 2.61h-0.22a2.4 2.4 0 0 1-2.19-2.61c0-1.94 2.26-4.37 2.3-4.37zm-21.35 12.75h2.59v-4.77h4.35v-2h-4.35v-2.66h4.52v-2h-7.11zm23.69-12.41h2.73l-3.17-11.42h-3.48l-3.29 11.42h2.53l0.72-2.51h3.31zm-1.13-4.51h-2.38l1.11-5h0.18zm12 11.19c0 3.36 1.56 5.91 4.85 5.91s4.87-2.55 4.87-5.91-1.58-5.91-4.87-5.91-4.88 2.57-4.88 5.93zm2.76 0c0-2.19 0.54-4 2.09-4s2.12 1.79 2.12 4-0.56 4-2.12 4-2.12-1.79-2.12-3.98zm-17 29.32a38.6 38.6 0 0 0 0.3-5v-0.35c0-2.93-0.11-3.91-2.06-4.56-3-1-4.25-4.37-3.59-8.56l-10.16-25.61a25.2 25.2 0 0 0 15.44 44.1zm1.2-16.37c-4-0.93-5.51-4.59-5.51-7.84l-8.9-21.67c-0.57 0.4-1.13 0.83-1.68 1.27 1.94 4.6 10.68 25.31 10.68 25.34 1.55 3.71 4.36 2.48 5 5.55a6.54 6.54 0 0 1 0.18 1.07h0.3a7 7 0 0 1 0.17-1.07c0.68-3.07 3.48-1.84 5-5.55 0 0 8.73-20.74 10.68-25.34-0.55-0.44-1.1-0.87-1.68-1.27l-8.79 21.69c0 3.25-1.49 6.91-5.51 7.84zm0-6.54a5.54 5.54 0 0 1-4.1-4.25 9.76 9.76 0 0 1-0.06-2.7l-7.82-17.51c-0.63 0.33-1.23 0.7-1.83 1.08 2.32 5.21 9.4 21.1 9.4 21.12 1.12 2.36 3.09 2.41 3.77 3.81a4.91 4.91 0 0 1 0.45 1.64h0.26a4.52 4.52 0 0 1 0.44-1.64c0.69-1.4 2.65-1.45 3.77-3.81 0 0 7.09-15.91 9.4-21.12-0.59-0.38-1.2-0.75-1.83-1.08l-7.73 17.53a9.26 9.26 0 0 1-0.07 2.7 5.54 5.54 0 0 1-4.09 4.25zm0.11-3 0.12-1c0.49-2.22 2.1-1.94 3.22-4.12 0-0.08 5.51-11.84 7.79-16.75a25.18 25.18 0 0 0-22.49 0c2.29 4.91 7.76 16.67 7.81 16.75 1.12 2.18 2.72 1.9 3.21 4.12l0.12 1zm25.12 0.71a25.19 25.19 0 0 0-8.64-18.88l-10.1 25.67c0.67 4.19-0.57 7.56-3.59 8.56-1.95 0.65-2.06 1.63-2.06 4.56v0.35a40.53 40.53 0 0 0 0.3 5 25.24 25.24 0 0 0 24.01-25.22zm-42.54 7.48s0.37 0.8 0.68 1.36 0.71 1.24 0.71 1.24l-0.67 0.39s-0.5-0.84-1-1.82l-1 0.55c0.08 0.14 0.89 1.72 0.89 1.72l-0.67 0.38-0.9-1.74-1.86 1-0.44-0.87 4.21-2.19zm2.66 4.32 0.59 0.71-3.69 3.07-0.59-0.7 3.65-3zm3.41 3.23 0.73 0.52-0.9 5.08-0.84-0.49s0.21-1 0.24-1.13-0.53-0.32-1-0.66-0.95-0.72-1-0.75l-1 0.6-0.71-0.61 4.49-2.54zm-2.17 2.15c0.09 0.08 0.4 0.33 0.73 0.56a8.32 8.32 0 0 0 0.75 0.49c0.05-0.21 0.38-1.88 0.45-2.19zm5.17-0.28a18.65 18.65 0 0 0 1.88 0.76 18.27 18.27 0 0 0 2 0.6l-0.22 0.73a13.33 13.33 0 0 1-1.57-0.4c-0.06 0.16-1.32 3.78-1.32 3.78l-0.87-0.3s1.26-3.63 1.32-3.79a12.68 12.68 0 0 1-1.54-0.67zm15.16 1a1.43 1.43 0 0 1 0.67 0.88 1.8 1.8 0 0 1 0.08 0.5 1.6 1.6 0 0 1-1.27 1.41l-0.56 0.17 0.56 1.83-0.85 0.21-1.42-4.62 1.27-0.4a2.12 2.12 0 0 1 1.56-0.02zm-1.74 0.79 0.41 1.45 0.56-0.17a1 1 0 0 0 0.57-0.43 0.61 0.61 0 0 0 0.08-0.3 0.69 0.69 0 0 0 0-0.24 0.61 0.61 0 0 0-0.3-0.38 1.19 1.19 0 0 0-0.83 0zm4.64-2.88 4.16 3.05-0.74 0.52-0.92-0.7s-0.47 0.33-0.94 0.6-0.9 0.5-0.95 0.53 0.18 1.13 0.18 1.13l-0.79 0.38-0.7-5.11zm0.48 3.23c0.12-0.06 0.45-0.24 0.77-0.43s0.51-0.32 0.63-0.41l-1.74-1.33c0.05 0.38 0.31 2 0.34 2.21zm4.29-7.35 3.63 3.23-0.63 0.77-4-1.17c0.39 0.36 2.5 2.59 2.5 2.59l-0.6 0.58-3.42-3.48 0.8-0.72s3.29 1 3.8 1.12c-0.38-0.37-2.65-2.32-2.65-2.32zm1.66-2.42 4.19 2.42-0.43 0.74-4.22-2.47zm1.82-4 0.72 0.37-0.07 0.08a2.07 2.07 0 0 0-0.45 0.76 0.8 0.8 0 0 0 0 0.63 0.44 0.44 0 0 0 0.29 0.24c0.32 0.11 0.6-0.17 0.92-0.49a1.72 1.72 0 0 1 1.88-0.71c0.9 0.3 1.21 1.11 0.83 2.2a3.17 3.17 0 0 1-0.51 0.88v0.06l-0.75-0.35 0.08-0.08a2.72 2.72 0 0 0 0.51-0.83 0.75 0.75 0 0 0-0.38-1c-0.4-0.14-0.7 0.17-1 0.53s-0.91 0.95-1.72 0.68a1.29 1.29 0 0 1-0.76-0.64 1.69 1.69 0 0 1 0-1.33 3 3 0 0 1 0.5-0.93z"/>
 <path id="path8" class="cls-1" d="m67.2 6.01h5.65v1.59h-3.6v3h3.44v1.63h-3.44v4.86h-2z"/>
 <path id="path10" class="cls-1" d="m77.32 8.77c1.68 0 3.61 0.88 3.61 4.24 0 3.36-1.92 4.25-3.61 4.25s-3.63-0.8-3.63-4.25c0-3.45 1.95-4.24 3.63-4.24zm0 7.08c1.28 0 1.57-1.47 1.57-2.84s-0.29-2.84-1.57-2.84-1.58 1.46-1.58 2.84 0.27 2.84 1.58 2.84z"/>
 <path id="path12" class="cls-1" d="m85.9 8.77c1.68 0 3.62 0.88 3.62 4.24 0 3.36-1.94 4.25-3.62 4.25s-3.63-0.8-3.63-4.25c0-3.45 1.95-4.24 3.63-4.24zm0 7.08c1.28 0 1.57-1.47 1.57-2.84s-0.29-2.84-1.57-2.84-1.58 1.46-1.58 2.84 0.3 2.84 1.58 2.84z"/>
 <path id="path14" class="cls-1" d="m97.84 5.14v10.58a10.1 10.1 0 0 0 0.07 1.41h-1.9a11.76 11.76 0 0 1 0-1.28 2.22 2.22 0 0 1-2.19 1.41c-2 0-2.89-1.95-2.89-4.24 0-2.69 1.07-4.25 2.84-4.25a2.21 2.21 0 0 1 2.13 1.31v-4.94zm-3.54 10.66c1.16 0 1.56-1.26 1.56-2.81s-0.45-2.77-1.53-2.77-1.49 1.07-1.49 2.72c0 1.9 0.3 2.86 1.46 2.86z"/>
 <path id="path16" class="cls-1" d="m104.22 9.37a5.83 5.83 0 0 1 2.61-0.6c2.56 0 3.15 1.24 3.15 3.31v3.59a9.89 9.89 0 0 0 0.11 1.46h-1.79a3.94 3.94 0 0 1-0.11-1.12 2.65 2.65 0 0 1-2.3 1.25 2.36 2.36 0 0 1-2.46-2.42c0-2.23 1.82-2.79 4.33-2.79h0.4v-0.31a1.42 1.42 0 0 0-1.53-1.57 3.81 3.81 0 0 0-2.26 0.8zm3.9 3.73h-0.17c-1.7 0-2.71 0.35-2.71 1.55a1.19 1.19 0 0 0 1.27 1.26c1.18 0 1.61-0.88 1.61-2.34z"/>
 <path id="path18" class="cls-1" d="m111.81 10.25a10.69 10.69 0 0 0-0.06-1.35h1.85c0 0.41 0.07 0.84 0.07 1.26a2.4 2.4 0 0 1 2.19-1.39c1.87 0 2.43 1.39 2.43 3.05v5.31h-2v-4.94c0-1.26-0.32-1.79-1.14-1.79-1 0-1.4 0.88-1.4 1.93v4.8h-2z"/>
 <path id="path20" class="cls-1" d="m126.87 5.14v10.58a12.41 12.41 0 0 0 0.06 1.41h-1.85a11.76 11.76 0 0 1-0.06-1.28h-0.01a2.22 2.22 0 0 1-2.19 1.41c-2 0-2.9-1.95-2.9-4.24 0-2.69 1.07-4.25 2.85-4.25a2.22 2.22 0 0 1 2.13 1.31v-4.94zm-3.55 10.66c1.17 0 1.57-1.26 1.57-2.81s-0.45-2.77-1.54-2.77-1.48 1.07-1.48 2.72c0 1.9 0.3 2.86 1.45 2.86z"/>
 <path id="path22" class="cls-1" d="m137.85 14.44h-3.84l-0.8 2.69h-2l3.7-11.12h2.24l3.6 11.16h-2.11zm-0.43-1.56-1.41-5.22-1.53 5.22z"/>
 <path id="path24" class="cls-1" d="m142.01 18.41a5.17 5.17 0 0 0 2.43 0.7c1.87 0 2.17-1.29 2.17-2.59v-0.78a2.25 2.25 0 0 1-2.17 1.39c-1.15 0-2.88-0.77-2.88-4.09 0-2.27 0.81-4.27 3-4.27a2.36 2.36 0 0 1 2.18 1.4h0.06c0-0.43 0-0.84 0.07-1.27h1.79c0 0.43-0.07 0.86-0.07 1.29v6.08c0 2.57-0.78 4.41-3.8 4.41a8.46 8.46 0 0 1-2.83-0.51zm2.86-2.74c1.25 0 1.74-0.89 1.74-2.76s-0.65-2.66-1.6-2.64-1.43 1-1.43 2.65c-0.02 1.94 0.6 2.75 1.27 2.75z"/>
 <path id="path26" class="cls-1" d="m150.38 10.25a13 13 0 0 0-0.06-1.35h1.79c0 0.49 0.06 1 0.06 1.5a2.3 2.3 0 0 1 2.1-1.63 1.63 1.63 0 0 1 0.33 0.05v1.85a1.94 1.94 0 0 0-0.56-0.08c-0.81 0-1.71 0.5-1.71 2v4.51h-2z"/>
 <path id="path28" class="cls-1" d="m156.1 5.39h2v2h-2zm0 3.51h2v8.23h-2z"/>
 <path id="path30" class="cls-1" d="m165.69 16.92a5.51 5.51 0 0 1-2 0.34c-2.71 0-3.87-1.9-3.87-4.24s1.22-4.25 4-4.25a5.53 5.53 0 0 1 1.72 0.33l-0.11 1.57a3.12 3.12 0 0 0-1.39-0.4c-1.5 0-2.16 1-2.16 2.77 0 1.53 0.74 2.72 2.26 2.72a3.26 3.26 0 0 0 1.4-0.4z"/>
 <path id="path32" class="cls-1" d="m173.42 15.77a11 11 0 0 0 0.06 1.36h-1.86c0-0.42-0.06-0.85-0.06-1.26h-0.05a2.42 2.42 0 0 1-2.19 1.39c-1.87 0-2.43-1.39-2.43-3.06v-5.3h2v4.94c0 1.26 0.35 1.79 1.18 1.79 1.06 0 1.36-1 1.36-2v-4.73h2z"/>
 <path id="path34" class="cls-1" d="m175.39 5.14h2v12h-2z"/>
 <path id="path36" class="cls-1" d="m180.09 7.2 2-0.61v2.31h1.64v1.45h-1.64v4.27c0 0.88 0.32 1.14 0.89 1.14a1.54 1.54 0 0 0 0.75-0.18v1.43a3.07 3.07 0 0 1-1.32 0.27c-1.47 0-2.31-0.67-2.31-2.4v-4.53h-1.31v-1.45h1.31z"/>
 <path id="path38" class="cls-1" d="m191.49 15.77a10.77 10.77 0 0 0 0.07 1.36h-1.86c0-0.42-0.06-0.85-0.06-1.26a2.43 2.43 0 0 1-2.2 1.39c-1.87 0-2.42-1.39-2.42-3.06v-5.3h2v4.94c0 1.26 0.35 1.79 1.18 1.79 1.06 0 1.36-1 1.36-2v-4.73h2z"/>
 <path id="path40" class="cls-1" d="m193.34 10.25a10.69 10.69 0 0 0-0.06-1.35h1.79c0 0.49 0.06 1 0.06 1.5a2.29 2.29 0 0 1 2.09-1.63 1.74 1.74 0 0 1 0.34 0.05v1.85a2 2 0 0 0-0.56-0.08c-0.82 0-1.71 0.5-1.71 2v4.51h-2z"/>
 <path id="path42" class="cls-1" d="m204.79 16.73a6.07 6.07 0 0 1-2.46 0.53c-2.66 0-3.81-1.9-3.81-4.13 0-2.46 1.3-4.36 3.39-4.36 1.78 0 3.3 1 3.3 4.4v0.38h-4.77c0 1.4 0.56 2.25 2.1 2.25a3.25 3.25 0 0 0 2.15-0.64zm-1.5-4.43c0-1.45-0.48-2.19-1.38-2.19s-1.47 1.1-1.47 2.19z"/>
 <path id="path44" class="cls-1" d="m71.2 23.88c2.32 0 4.44 1.72 4.44 5.74s-2.12 5.74-4.44 5.74-4.45-1.73-4.45-5.74 2.13-5.74 4.45-5.74zm0 9.91c1.29 0 2.33-1.1 2.33-4.17s-1-4.18-2.33-4.18-2.34 1.11-2.34 4.18 1.04 4.17 2.34 4.17z"/>
 <path id="path46" class="cls-1" d="m77.33 28.32a11 11 0 0 0-0.06-1.31h1.79c0 0.5 0.07 1 0.07 1.51a2.29 2.29 0 0 1 2.09-1.63 3.18 3.18 0 0 1 0.34 0v1.86a2 2 0 0 0-0.56-0.08c-0.82 0-1.71 0.49-1.71 2v4.51h-2z"/>
 <path id="path48" class="cls-1" d="m83.01 36.48a5.33 5.33 0 0 0 2.43 0.7c1.87 0 2.18-1.29 2.18-2.59v-0.78a2.26 2.26 0 0 1-2.18 1.39c-1.15 0-2.88-0.77-2.88-4.1 0-2.27 0.82-4.26 3-4.26a2.33 2.33 0 0 1 2.17 1.4h0.07c0-0.43 0-0.85 0.06-1.28h1.79c0 0.43-0.06 0.87-0.06 1.3v6.08c0 2.57-0.79 4.41-3.81 4.41a8.46 8.46 0 0 1-2.83-0.51zm2.86-2.74c1.25 0 1.75-0.89 1.75-2.76s-0.66-2.66-1.6-2.64-1.44 1-1.44 2.65c-0.02 1.94 0.6 2.75 1.27 2.75z"/>
 <path id="path50" class="cls-1" d="m91.72 27.44a5.83 5.83 0 0 1 2.61-0.6c2.55 0 3.15 1.24 3.15 3.31v3.59a9.89 9.89 0 0 0 0.11 1.46h-1.79a3.93 3.93 0 0 1-0.12-1.12 2.65 2.65 0 0 1-2.3 1.25 2.36 2.36 0 0 1-2.46-2.42c0-2.24 1.82-2.8 4.33-2.8h0.4v-0.3a1.42 1.42 0 0 0-1.53-1.57 3.81 3.81 0 0 0-2.26 0.8zm3.9 3.73h-0.18c-1.69 0-2.7 0.35-2.7 1.55a1.19 1.19 0 0 0 1.27 1.29c1.18 0 1.61-0.88 1.61-2.35z"/>
 <path id="path52" class="cls-1" d="m99.31 28.32a11 11 0 0 0-0.06-1.31h1.85c0 0.42 0.07 0.85 0.07 1.27a2.4 2.4 0 0 1 2.19-1.39c1.87 0 2.43 1.39 2.43 3.05v5.31h-2v-4.99c0-1.27-0.32-1.79-1.14-1.79-1 0-1.41 0.88-1.41 1.93v4.8h-2z"/>
 <path id="path54" class="cls-1" d="m107.77 23.46h2v1.95h-2zm0 3.5h2v8.24h-2z"/>
 <path id="path56" class="cls-1" d="m111.32 33.49 3.51-5h-3.4v-1.48h5.39v1.7l-3.46 5h3.57v1.5h-5.61z"/>
 <path id="path58" class="cls-1" d="m118.67 27.44a5.83 5.83 0 0 1 2.61-0.6c2.55 0 3.15 1.24 3.15 3.31v3.59a9.89 9.89 0 0 0 0.11 1.46h-1.79a3.93 3.93 0 0 1-0.12-1.12 2.65 2.65 0 0 1-2.3 1.25 2.36 2.36 0 0 1-2.46-2.42c0-2.24 1.82-2.8 4.33-2.8h0.4v-0.3a1.42 1.42 0 0 0-1.59-1.57 3.78 3.78 0 0 0-2.25 0.8zm3.9 3.73h-0.18c-1.69 0-2.7 0.35-2.7 1.55a1.19 1.19 0 0 0 1.26 1.29c1.19 0 1.62-0.88 1.62-2.35z"/>
 <path id="path60" class="cls-1" d="m127.01 25.27 2-0.61v2.35h1.65v1.46h-1.65v4.27c0 0.88 0.32 1.13 0.89 1.13a1.64 1.64 0 0 0 0.76-0.17v1.31a3 3 0 0 1-1.33 0.28c-1.47 0-2.3-0.67-2.3-2.4v-4.47h-1.32v-1.41h1.3z"/>
 <path id="path62" class="cls-1" d="m132.01 23.46h2v1.95h-2zm0 3.5h2v8.24h-2z"/>
 <path id="path64" class="cls-1" d="m139.45 26.84c1.68 0 3.61 0.87 3.61 4.23s-1.93 4.26-3.61 4.26-3.63-0.8-3.63-4.26 1.95-4.23 3.63-4.23zm0 7.08c1.28 0 1.57-1.47 1.57-2.85s-0.29-2.83-1.57-2.83-1.59 1.46-1.59 2.83 0.31 2.85 1.59 2.85z"/>
 <path id="path66" class="cls-1" d="m144.63 28.32a10.77 10.77 0 0 0-0.07-1.36h1.86c0 0.42 0.06 0.85 0.06 1.27a2.4 2.4 0 0 1 2.19-1.39c1.87 0 2.43 1.39 2.43 3.05v5.31h-2v-4.94c0-1.27-0.32-1.79-1.14-1.79-1 0-1.4 0.88-1.4 1.93v4.8h-2z"/>
 <path id="path68" class="cls-1" d="m160.48 26.84c1.68 0 3.62 0.87 3.62 4.23s-1.94 4.26-3.62 4.26-3.63-0.8-3.63-4.26 1.95-4.23 3.63-4.23zm0 7.08c1.28 0 1.57-1.47 1.57-2.85s-0.29-2.83-1.57-2.83-1.58 1.46-1.58 2.83 0.3 2.85 1.58 2.85z"/>
 <path id="path70" class="cls-1" d="m166.3 28.42h-1.38v-1.41h1.38v-1.73a2.09 2.09 0 0 1 2.37-2.27 7 7 0 0 1 1.42 0.2l-0.08 1.43a3.18 3.18 0 0 0-0.78-0.12 0.92 0.92 0 0 0-0.95 1v1.49h1.5v1.46h-1.5v6.78h-2z"/>
 <path id="path72" class="cls-1" d="m175.87 25.27 2-0.61v2.35h1.64v1.46h-1.64v4.27c0 0.88 0.32 1.13 0.89 1.13a1.56 1.56 0 0 0 0.75-0.17v1.31a2.92 2.92 0 0 1-1.32 0.28c-1.48 0-2.31-0.67-2.31-2.4v-4.47h-1.31v-1.41h1.31z"/>
 <path id="path74" class="cls-1" d="m180.76 23.21h2v4.8a2.25 2.25 0 0 1 2.05-1.18c1.87 0 2.43 1.39 2.43 3.05v5.31h-2v-4.93c0-1.27-0.32-1.79-1.14-1.79-1 0-1.4 0.88-1.4 1.93v4.8h-2z"/>
 <path id="path76" class="cls-1" d="m195.1 34.8a6.16 6.16 0 0 1-2.46 0.53c-2.65 0-3.8-1.91-3.8-4.13 0-2.46 1.29-4.36 3.38-4.36 1.78 0 3.3 1 3.3 4.39v0.39h-4.76c0 1.4 0.55 2.25 2.09 2.25a3.3 3.3 0 0 0 2.16-0.64zm-1.5-4.43c0-1.46-0.48-2.19-1.38-2.19s-1.46 1.1-1.46 2.19z"/>
 <path id="path78" class="cls-1" d="m69.15 42.1v7.23c0 1.86 0.56 2.47 1.76 2.47s1.74-0.61 1.74-2.47v-7.23h2v7.23c0 2.94-1.69 4.1-3.79 4.1s-3.81-1.16-3.81-4.1v-7.23z"/>
 <path id="path80" class="cls-1" d="m76.68 46.39a13.32 13.32 0 0 0-0.06-1.38h1.85c0 0.42 0.06 0.85 0.06 1.26a2.39 2.39 0 0 1 2.19-1.39c1.87 0 2.43 1.39 2.43 3.06v5.31h-2v-4.93c0-1.26-0.32-1.79-1.13-1.79-1 0-1.41 0.88-1.41 1.94v4.8h-2z"/>
 <path id="path82" class="cls-1" d="m85.13 41.53h2v1.95h-2zm0 3.5h2v8.24h-2z"/>
 <path id="path84" class="cls-1" d="m89.87 43.34 2-0.61v2.28h1.65v1.46h-1.67v4.27c0 0.88 0.32 1.13 0.89 1.13a1.51 1.51 0 0 0 0.76-0.18v1.41a3 3 0 0 1-1.33 0.27c-1.47 0-2.3-0.67-2.3-2.39v-4.49h-1.31v-1.48h1.31z"/>
 <path id="path86" class="cls-1" d="m100.8 52.87a6.24 6.24 0 0 1-2.46 0.52c-2.66 0-3.81-1.9-3.81-4.12 0-2.46 1.3-4.37 3.39-4.37 1.78 0 3.3 1 3.3 4.4v0.38h-4.77c0 1.41 0.56 2.26 2.1 2.26a3.25 3.25 0 0 0 2.15-0.64zm-1.5-4.43c0-1.46-0.48-2.19-1.38-2.19s-1.47 1.1-1.47 2.19z"/>
 <path id="path88" class="cls-1" d="m109.51 41.27v10.59a12.53 12.53 0 0 0 0.06 1.41h-1.85a11.76 11.76 0 0 1-0.06-1.28h-0.05a2.22 2.22 0 0 1-2.19 1.4c-2 0-2.9-2-2.9-4.23 0-2.69 1.07-4.26 2.85-4.26a2.22 2.22 0 0 1 2.13 1.31v-4.94zm-3.5 10.67c1.17 0 1.57-1.26 1.57-2.82s-0.45-2.76-1.54-2.76-1.48 1.07-1.48 2.72c-0.05 1.93 0.25 2.86 1.45 2.86z"/>
 <path id="path90" class="cls-1" d="m115.76 42.1h2.43l3.71 8.77v-8.77h1.86v11.17h-2.45l-3.69-8.7v8.7h-1.85z"/>
 <path id="path92" class="cls-1" d="m126.24 45.51a5.84 5.84 0 0 1 2.61-0.61c2.56 0 3.15 1.25 3.15 3.31v3.6a11.67 11.67 0 0 0 0.11 1.46h-1.79a4.34 4.34 0 0 1-0.11-1.12 2.65 2.65 0 0 1-2.3 1.24 2.37 2.37 0 0 1-2.5-2.38c0-2.24 1.83-2.8 4.34-2.8h0.4v-0.3a1.42 1.42 0 0 0-1.54-1.57 3.78 3.78 0 0 0-2.25 0.8zm3.91 3.73h-0.14c-1.69 0-2.7 0.35-2.7 1.55a1.19 1.19 0 0 0 1.22 1.22c1.18 0 1.62-0.88 1.62-2.35z"/>
 <path id="path94" class="cls-1" d="m134.57 43.34 2-0.61v2.28h1.65v1.46h-1.65v4.27c0 0.88 0.32 1.13 0.9 1.13a1.43 1.43 0 0 0 0.75-0.18v1.41a3 3 0 0 1-1.33 0.27c-1.47 0-2.3-0.67-2.3-2.39v-4.49h-1.31v-1.48h1.31z"/>
 <path id="path96" class="cls-1" d="m139.62 41.53h2v1.95h-2zm0 3.5h2v8.24h-2z"/>
 <path id="path98" class="cls-1" d="m147.01 44.9c1.68 0 3.62 0.88 3.62 4.24s-1.94 4.25-3.62 4.25-3.63-0.8-3.63-4.25 1.96-4.24 3.63-4.24zm0 7.11c1.28 0 1.57-1.47 1.57-2.85s-0.29-2.83-1.57-2.83-1.58 1.46-1.58 2.83 0.32 2.85 1.58 2.85z"/>
 <path id="path100" class="cls-1" d="m152.2 46.39a11 11 0 0 0-0.06-1.36h1.87c0 0.42 0.07 0.85 0.07 1.26a2.42 2.42 0 0 1 2.19-1.39c1.87 0 2.43 1.39 2.43 3.06v5.31h-2v-4.95c0-1.26-0.32-1.79-1.14-1.79-1 0-1.41 0.88-1.41 1.94v4.8h-2z"/>
 <path id="path102" class="cls-1" d="m160.27 51.35a5.3 5.3 0 0 0 2.07 0.54c0.72 0 1.27-0.18 1.27-0.81 0-0.32-0.16-0.63-0.87-1l-0.82-0.48c-0.83-0.5-1.74-1-1.74-2.32a2.62 2.62 0 0 1 2.83-2.38 6.45 6.45 0 0 1 2.07 0.34l-0.07 1.53a4.54 4.54 0 0 0-1.74-0.36c-0.8 0-1.13 0.3-1.13 0.8s0.35 0.68 0.92 1l1 0.62c1 0.66 1.53 1.12 1.53 2.08 0 1.52-1.28 2.43-3.07 2.43a6.61 6.61 0 0 1-2.28-0.4z"/>
</svg>
