<?xml version="1.0" encoding="UTF-8" standalone="no"?>
<svg
   id="layer"
   width="600.1"
   height="311.8"
   version="1.1"
   viewBox="-153 -46 600.1 311.8"
   sodipodi:docname="iwmi_logo_w.svg"
   inkscape:version="1.1.1 (1:1.1+202109281943+c3084ef5ed)"
   xmlns:inkscape="http://www.inkscape.org/namespaces/inkscape"
   xmlns:sodipodi="http://sodipodi.sourceforge.net/DTD/sodipodi-0.dtd"
   xmlns="http://www.w3.org/2000/svg"
   xmlns:svg="http://www.w3.org/2000/svg">
  <defs
     id="defs47" />
  <sodipodi:namedview
     id="namedview45"
     pagecolor="#ffffff"
     bordercolor="#666666"
     borderopacity="1.0"
     inkscape:pageshadow="2"
     inkscape:pageopacity="0.0"
     inkscape:pagecheckerboard="0"
     showgrid="false"
     inkscape:current-layer="layer" />
  <style
     id="style2"
     type="text/css">.st0{fill:#27587F;}</style>
  <path
     id="path4"
     class="st0"
     d="m81.6-45.4c-0.2-0.2-0.5-0.5-1-0.5h-24.8c-1.7 0-3.2 1.1-3.7 2.8l-22 78.5-1.9 6.7-1.9-6.7-22.5-80.3c-0.2-0.6-0.7-1-1.3-1h-28.1c-1.7 0-3.2 1.1-3.7 2.8l-10.6 38.3-11.4 40.6-1.9 6.7-1.9-6.7-15.9-57-6.6-23.7c-0.2-0.6-0.7-1-1.2-1h-0.1c-4.5 0.4-16 1.8-25.6 4.9-0.7 0.2-1 0.9-0.9 1.6l36.9 130.8c0.5 1.6 2 2.8 3.7 2.8h23.8c1.7 0 3.2-1.1 3.7-2.8l23.2-82.8 1.9-6.7 1.9 6.7 23.2 82.9c0.5 1.6 2 2.8 3.7 2.8h23.5c1.7 0 3.2-1.1 3.7-2.8l38-135.9c0.2-0.4 0-0.8-0.2-1"
     fill="#fff"
     style="fill:#ffffff;fill-opacity:1" />
  <path
     id="path6"
     class="st0"
     d="m-124.4-30.4h-0.1l-0.7 0.3c-17.1 9-27.7 26.7-27.7 46.3v75.4c0 1.5 1.3 2.8 2.8 2.8h23.2c1.5 0 2.8-1.3 2.8-2.8v-121.7c0-0.1-0.1-0.2-0.1-0.2-0.1-0.1-0.2-0.1-0.2-0.1"
     fill="#fff"
     style="fill:#ffffff;fill-opacity:1" />
  <path
     id="path8"
     class="st0"
     d="m304-46h-23.2c-1.5 0-2.8 1.3-2.8 2.8v121.8c0 0.1 0.1 0.2 0.1 0.2h0.3l0.7-0.3c17.1-9 27.7-26.7 27.7-46.3v-75.3c0-1.6-1.3-2.9-2.8-2.9"
     fill="#fff"
     style="fill:#ffffff;fill-opacity:1" />
  <path
     id="path10"
     class="st0"
     d="m222.4-43.1c-0.5-1.6-2-2.8-3.7-2.8h-23.8c-1.7 0-3.2 1.1-3.7 2.8l-23.1 82.9-1.9 6.7-1.9-6.7-23.2-83c-0.5-1.6-2-2.8-3.7-2.8h-23.8c-1.7 0-3.2 1.1-3.7 2.8l-38 135.9c-0.2 0.5 0.1 0.9 0.2 1.1 0.2 0.2 0.5 0.5 1 0.5h25c1.7 0 3.2-1.1 3.7-2.8l22-78.5 1.9-6.7 1.9 6.7 22.5 80.3c0.2 0.6 0.7 0.9 1.3 0.9h28.2c1.7 0 3.2-1.1 3.7-2.8l10.7-38.3 11.4-40.6 1.9-6.7 1.9 6.7 15.9 57 6.6 23.7c0.2 0.6 0.7 1 1.2 1h0.1c4.5-0.4 16-1.8 25.6-4.9 0.7-0.2 1-0.9 0.9-1.6z"
     fill="#fff"
     style="fill:#ffffff;fill-opacity:1" />
  <rect
     id="rect12"
     class="st0"
     x="-152.9"
     y="141.3"
     width="6.3"
     height="42.9"
     fill="#fff"
     style="fill:#ffffff;fill-opacity:1" />
  <path
     id="path14"
     class="st0"
     d="m-130.4 157c1.7-5 5.4-7.3 10.2-7.3 5.2 0 9.6 3.1 9.6 10.4v24.1h-6.2v-22.1c0-4.2-1.8-6.7-5.6-6.7s-7.5 2.2-7.5 9.5v19.3h-6.2v-33.7h4.9z"
     fill="#fff"
     style="fill:#ffffff;fill-opacity:1" />
  <path
     id="path16"
     class="st0"
     d="m-83.8 183.1c-2.1 1.3-4.7 2-7.7 2-5.7 0-9.1-3.2-9.1-9.5v-19.8h-4.6v-5.2h4.6v-7.1l6.2-0.8v7.9h9.4v5.2h-9.5v18.5c0 3.6 1.6 5.2 4.2 5.2 2.1 0 3.5-0.6 5.3-1.8z"
     fill="#fff"
     style="fill:#ffffff;fill-opacity:1" />
  <path
     id="path18"
     class="st0"
     d="m-58.8 174.4 5.4 1.5c-1.3 6.8-6.7 9.1-12.7 9.1-8.4 0-14.1-6.2-14.1-17.4 0-11.3 5.6-17.9 14.5-17.9 8.2 0 12.6 6 12.6 14.4 0 1.9-0.3 3.6-0.6 4.7h-20.5c0.3 6.6 3.2 11.2 8.5 11.2 3.4-0.1 5.8-1.6 6.9-5.6m-0.5-10.4c0.1-0.5 0.1-1 0.1-1.4 0-4.3-2.6-7.7-6.9-7.7-4.5 0-7.4 3.3-8 9.1z"
     fill="#fff"
     style="fill:#ffffff;fill-opacity:1" />
  <path
     id="path20"
     class="st0"
     d="m-27.6 157.1c-0.8-0.1-1.8-0.3-2.8-0.3-4.5 0-8.8 3.7-8.8 10.3v17.1h-6.2v-33.7h5.2l0.7 9.1c1.2-6 5.2-10.2 12.3-9.8z"
     fill="#fff"
     style="fill:#ffffff;fill-opacity:1" />
  <path
     id="path22"
     class="st0"
     d="m-15.3 157c1.7-5 5.4-7.3 10.2-7.3 5.2 0 9.6 3.1 9.6 10.4v24.1h-6.2v-22.1c0-4.2-1.8-6.7-5.6-6.7s-7.5 2.2-7.5 9.5v19.3h-6.1v-33.7h4.9z"
     fill="#fff"
     style="fill:#ffffff;fill-opacity:1" />
  <path
     id="path24"
     class="st0"
     d="m36.3 176.2c0 2.5 1.1 3.1 2.3 3.1 0.8 0 1.3-0.2 1.8-0.4v5.1c-0.9 0.4-2 0.6-3.4 0.6-3.6 0-6-1.6-6.5-5.4-1.7 4.2-5.4 5.8-9.4 5.8-5.6 0-9.5-3.4-9.5-9.1 0-7.4 5.4-11.7 18.4-11.1v-4.2c0-4.1-2.3-5.7-5.7-5.7s-5.5 1.9-5.8 5.4l-5.9-1c0.5-7.1 6.4-9.7 12.2-9.7 6.2 0 11.4 2.6 11.4 10.4v16.2zm-6.2-7c-8.5-0.2-12.2 1.8-12.2 6 0 2.8 1.7 4.9 5.1 4.9 3.3 0 7.1-2.1 7.1-6z"
     fill="#fff"
     style="fill:#ffffff;fill-opacity:1" />
  <path
     id="path26"
     class="st0"
     d="m64.1 183.1c-2.1 1.3-4.7 2-7.7 2-5.7 0-9.1-3.2-9.1-9.5v-19.8h-4.6v-5.2h4.6v-7.1l6.2-0.8v7.9h9.4v5.2h-9.5v18.5c0 3.6 1.6 5.2 4.2 5.2 2.1 0 3.5-0.6 5.3-1.8z"
     fill="#fff"
     style="fill:#ffffff;fill-opacity:1" />
  <path
     id="path28"
     class="st0"
     d="m73.1 135.4c2.4 0 4.3 1.7 4.3 4.4 0 2.5-1.9 4.4-4.3 4.4-2.2 0-4.1-1.9-4.1-4.4 0-2.7 1.9-4.4 4.1-4.4m3.2 48.8h-6.2v-33.7h6.2z"
     fill="#fff"
     style="fill:#ffffff;fill-opacity:1" />
  <path
     id="path30"
     class="st0"
     d="m84.1 167.1c0-11.4 5.7-17.4 14.4-17.4 8.8 0 14.5 6 14.5 17.4 0 11.5-5.7 17.9-14.5 17.9-8.7 0-14.4-6.4-14.4-17.9m6.1 0.1c0 8.5 2.8 12.7 8.3 12.7 5.6 0 8.4-4.2 8.4-12.7 0-8.2-2.9-12.2-8.4-12.2-5.4 0-8.3 4-8.3 12.2"
     fill="#fff"
     style="fill:#ffffff;fill-opacity:1" />
  <path
     id="path32"
     class="st0"
     d="m126.5 157c1.7-5 5.4-7.3 10.2-7.3 5.2 0 9.6 3.1 9.6 10.4v24.1h-6.2v-22.1c0-4.2-1.8-6.7-5.6-6.7-3.9 0-7.5 2.2-7.5 9.5v19.3h-6.2v-33.7h4.9z"
     fill="#fff"
     style="fill:#ffffff;fill-opacity:1" />
  <path
     id="path34"
     class="st0"
     d="m178.1 176.2c0 2.5 1.1 3.1 2.3 3.1 0.8 0 1.3-0.2 1.8-0.4v5.1c-0.9 0.4-2 0.6-3.4 0.6-3.6 0-6-1.6-6.5-5.4-1.7 4.2-5.4 5.8-9.4 5.8-5.6 0-9.5-3.4-9.5-9.1 0-7.4 5.4-11.7 18.4-11.1v-4.2c0-4.1-2.3-5.7-5.7-5.7s-5.5 1.9-5.8 5.4l-5.9-1c0.5-7.1 6.4-9.7 12.2-9.7 6.2 0 11.4 2.6 11.4 10.4v16.2zm-6.2-7c-8.5-0.2-12.2 1.8-12.2 6 0 2.8 1.7 4.9 5.1 4.9 3.3 0 7.1-2.1 7.1-6z"
     fill="#fff"
     style="fill:#ffffff;fill-opacity:1" />
  <path
     id="path36"
     class="st0"
     d="m199.5 184.2c-1.6 0.4-2.7 0.6-3.8 0.6-4 0-7.3-2.3-7.3-7.3v-42h6.2v40.6c0 2.1 1.2 3 2.8 3 0.9 0 1.5-0.1 2.2-0.4z"
     fill="#fff"
     style="fill:#ffffff;fill-opacity:1" />
  <path
     id="path38"
     class="st0"
     d="m255.5 168.1c1.6 6.7 2.2 11.6 2.2 11.6h0.3s0.6-5 2.1-11.5l6.4-27h6.4l-10.5 42.9h-9l-6.2-25.3c-1.7-6.6-1.7-11.5-1.7-11.5h-0.3s-0.3 4.8-1.9 11.5l-6.1 25.3h-9l-10.5-42.8h6.7l6.3 26.8c1.5 6.6 2.1 11.7 2.1 11.7h0.3s0.5-5 2.1-11.7l6.5-26.8h7.4z"
     fill="#fff"
     style="fill:#ffffff;fill-opacity:1" />
  <path
     id="path40"
     class="st0"
     d="m300.2 176.2c0 2.5 1.1 3.1 2.3 3.1 0.8 0 1.3-0.2 1.8-0.4v5.1c-0.9 0.4-2 0.6-3.4 0.6-3.6 0-6-1.6-6.5-5.4-1.7 4.2-5.4 5.8-9.4 5.8-5.6 0-9.5-3.4-9.5-9.1 0-7.4 5.4-11.7 18.4-11.1v-4.2c0-4.1-2.3-5.7-5.7-5.7s-5.5 1.9-5.8 5.4l-5.9-1c0.5-7.1 6.4-9.7 12.2-9.7 6.2 0 11.4 2.6 11.4 10.4v16.2zm-6.2-7c-8.5-0.2-12.2 1.8-12.2 6 0 2.8 1.7 4.9 5.1 4.9 3.3 0 7.1-2.1 7.1-6z"
     fill="#fff"
     style="fill:#ffffff;fill-opacity:1" />
  <path
     id="path42"
     class="st0"
     d="m328.1 183.1c-2.1 1.3-4.7 2-7.7 2-5.7 0-9.1-3.2-9.1-9.5v-19.8h-4.6v-5.2h4.6v-7.1l6.2-0.8v7.9h9.4v5.2h-9.5v18.5c0 3.6 1.6 5.2 4.2 5.2 2.1 0 3.5-0.6 5.3-1.8z"
     fill="#fff"
     style="fill:#ffffff;fill-opacity:1" />
  <path
     id="path44"
     class="st0"
     d="m353.1 174.4 5.4 1.5c-1.3 6.8-6.7 9.1-12.7 9.1-8.4 0-14.1-6.2-14.1-17.4 0-11.3 5.6-17.9 14.5-17.9 8.2 0 12.6 6 12.6 14.4 0 1.9-0.3 3.6-0.6 4.7h-20.5c0.3 6.6 3.2 11.2 8.5 11.2 3.4-0.1 5.8-1.6 6.9-5.6m-0.5-10.4c0.1-0.5 0.1-1 0.1-1.4 0-4.3-2.6-7.7-6.9-7.7-4.5 0-7.4 3.3-8 9.1z"
     fill="#fff"
     style="fill:#ffffff;fill-opacity:1" />
  <path
     id="path46"
     class="st0"
     d="m384.3 157.1c-0.8-0.1-1.8-0.3-2.8-0.3-4.5 0-8.8 3.7-8.8 10.3v17.1h-6.2v-33.7h5.2l0.7 9.1c1.2-6 5.2-10.2 12.3-9.8z"
     fill="#fff"
     style="fill:#ffffff;fill-opacity:1" />
  <path
     id="path48"
     class="st0"
     d="m-136.1 239.9-7.6-14.9c-2.3-4.7-3-7.4-3-7.4h-0.3s0.3 2.6 0.3 7.7v25h-6.3v-42.9h7.3l9.6 19.8c1.6 3.3 2.1 5.2 2.1 5.2h0.3s0.4-2 2.1-5.2l9.5-19.8h7.1v42.9h-6.4v-25c0-5.1 0.4-7.7 0.4-7.7h-0.3s-0.7 2.7-3.1 7.4l-7.6 14.9z"
     fill="#fff"
     style="fill:#ffffff;fill-opacity:1" />
  <path
     id="path50"
     class="st0"
     d="m-82.1 242.4c0 2.5 1.1 3.1 2.3 3.1 0.8 0 1.3-0.2 1.8-0.4v5.1c-0.9 0.4-2 0.6-3.4 0.6-3.6 0-6-1.6-6.5-5.4-1.7 4.2-5.4 5.8-9.4 5.8-5.6 0-9.5-3.4-9.5-9.1 0-7.4 5.4-11.7 18.4-11.1v-4.2c0-4.1-2.3-5.7-5.7-5.7s-5.5 1.9-5.8 5.4l-5.9-1c0.5-7.1 6.4-9.7 12.2-9.7 6.2 0 11.4 2.6 11.4 10.4v16.2zm-6.2-7.1c-8.5-0.2-12.2 1.8-12.2 6 0 2.8 1.7 4.9 5.1 4.9 3.3 0 7.1-2.1 7.1-6z"
     fill="#fff"
     style="fill:#ffffff;fill-opacity:1" />
  <path
     id="path52"
     class="st0"
     d="m-65.8 223.2c1.7-5 5.4-7.3 10.2-7.3 5.2 0 9.6 3.1 9.6 10.4v24.1h-6.2v-22.1c0-4.2-1.8-6.7-5.6-6.7s-7.5 2.2-7.5 9.5v19.3h-6.2v-33.7h4.9z"
     fill="#fff"
     style="fill:#ffffff;fill-opacity:1" />
  <path
     id="path54"
     class="st0"
     d="m-14.2 242.4c0 2.5 1.1 3.1 2.3 3.1 0.8 0 1.3-0.2 1.8-0.4v5.1c-0.9 0.4-2 0.6-3.4 0.6-3.6 0-6-1.6-6.5-5.4-1.7 4.2-5.4 5.8-9.4 5.8-5.6 0-9.5-3.4-9.5-9.1 0-7.4 5.4-11.7 18.4-11.1v-4.2c0-4.1-2.3-5.7-5.7-5.7s-5.5 1.9-5.8 5.4l-5.9-1c0.5-7.1 6.4-9.7 12.2-9.7 6.2 0 11.4 2.6 11.4 10.4v16.2zm-6.2-7.1c-8.5-0.2-12.2 1.8-12.2 6 0 2.8 1.7 4.9 5.1 4.9 3.3 0 7.1-2.1 7.1-6z"
     fill="#fff"
     style="fill:#ffffff;fill-opacity:1" />
  <path
     id="path56"
     class="st0"
     d="m16.5 218.6c1.5-0.9 2-2.6 2.4-5.1l5.4 2c-0.5 3.2-2.7 5.4-5.3 6 1 1.7 1.4 3.9 1.4 6.3 0 7.8-5.9 11.7-13 11.7-1.6 0-3.2-0.2-4.1-0.6-1.6 0.9-2.1 2-2.1 3.5 0 1.9 1.2 2.8 3.4 2.8h7.8c7.2 0 11.1 3.3 11.1 9.4 0 8.8-8.9 11.2-17.2 11.2-7 0-13.9-1.9-13.9-8.8 0-4.4 2.9-7.3 8.2-7.7-2.9-0.4-4.4-2.6-4.4-5.3s1.3-4.9 4.7-5.9c-3.9-1.8-6.2-5.2-6.2-10.2 0-7.6 5.2-12 12.8-12 3.5 0 6.6 0.9 9 2.7m-9.9 42.5c6.4 0 10.6-1.3 10.6-5.5 0-2.5-1.3-4.4-5.4-4.4h-6.7c-4.5 0-7.1 1.6-7.1 5.1s3.6 4.8 8.6 4.8m0.7-26.3c4.2 0 6.9-2.3 6.9-7.1 0-4.7-2.7-7.2-6.9-7.1-4.2 0-6.7 2.5-6.7 7.1 0 4.3 2.4 7.1 6.7 7.1"
     fill="#fff"
     style="fill:#ffffff;fill-opacity:1" />
  <path
     id="path58"
     class="st0"
     d="m47.8 240.6 5.4 1.5c-1.3 6.8-6.7 9.1-12.7 9.1-8.4 0-14.1-6.2-14.1-17.4 0-11.3 5.6-17.9 14.5-17.9 8.2 0 12.6 6 12.6 14.4 0 1.9-0.3 3.6-0.6 4.7h-20.6c0.3 6.6 3.2 11.2 8.5 11.2 3.5-0.1 5.9-1.6 7-5.6m-0.5-10.4c0.1-0.5 0.1-1 0.1-1.4 0-4.3-2.6-7.7-6.9-7.7-4.5 0-7.4 3.3-8 9.1z"
     fill="#fff"
     style="fill:#ffffff;fill-opacity:1" />
  <path
     id="path60"
     class="st0"
     d="m95.4 215.9c5.4 0 9.4 3.1 9.4 10.1v24.3h-6.2v-22.2c0-4.1-1.7-6.6-5.3-6.6s-7.2 2.7-7.2 9.5v19.3h-6.2v-22.2c0-4.1-1.7-6.6-5.3-6.6s-7.2 2.8-7.2 9.5v19.3h-6.2v-33.7h4.9l0.8 6.5c1.6-5.2 5.6-7.3 9.9-7.3 4.5 0 7.8 2.1 8.6 7.4 1.6-5.3 5.7-7.3 10-7.3"
     fill="#fff"
     style="fill:#ffffff;fill-opacity:1" />
  <path
     id="path62"
     class="st0"
     d="m133.7 240.6 5.4 1.5c-1.3 6.8-6.7 9.1-12.7 9.1-8.4 0-14.1-6.2-14.1-17.4 0-11.3 5.6-17.9 14.5-17.9 8.2 0 12.6 6 12.6 14.4 0 1.9-0.3 3.6-0.6 4.7h-20.5c0.3 6.6 3.2 11.2 8.5 11.2 3.5-0.1 5.8-1.6 6.9-5.6m-0.5-10.4c0.1-0.5 0.1-1 0.1-1.4 0-4.3-2.6-7.7-6.9-7.7-4.5 0-7.4 3.3-8 9.1z"
     fill="#fff"
     style="fill:#ffffff;fill-opacity:1" />
  <path
     id="path64"
     class="st0"
     d="m152.8 223.2c1.7-5 5.4-7.3 10.2-7.3 5.2 0 9.6 3.1 9.6 10.4v24.1h-6.2v-22.1c0-4.2-1.8-6.7-5.6-6.7-3.9 0-7.5 2.2-7.5 9.5v19.3h-6.2v-33.7h4.9z"
     fill="#fff"
     style="fill:#ffffff;fill-opacity:1" />
  <path
     id="path66"
     class="st0"
     d="m199.3 249.3c-2.1 1.3-4.7 2-7.7 2-5.7 0-9.1-3.2-9.1-9.5v-19.8h-4.6v-5.2h4.6v-7.1l6.2-0.8v7.9h9.4v5.2h-9.5v18.5c0 3.6 1.6 5.2 4.2 5.2 2.1 0 3.5-0.6 5.3-1.8z"
     fill="#fff"
     style="fill:#ffffff;fill-opacity:1" />
  <rect
     id="rect68"
     class="st0"
     x="221.3"
     y="207.4"
     width="6.3"
     height="42.9"
     fill="#fff"
     style="fill:#ffffff;fill-opacity:1" />
  <path
     id="path70"
     class="st0"
     d="m243.9 223.2c1.7-5 5.4-7.3 10.2-7.3 5.2 0 9.6 3.1 9.6 10.4v24.1h-6.2v-22.1c0-4.2-1.8-6.7-5.6-6.7s-7.5 2.2-7.5 9.5v19.3h-6.2v-33.7h4.9z"
     fill="#fff"
     style="fill:#ffffff;fill-opacity:1" />
  <path
     id="path72"
     class="st0"
     d="m275.6 241c0.5 3.9 3.1 5.5 6.9 5.5 3.6 0 6.3-1.5 6.3-4.5 0-2.8-1.2-4.3-5-5.3l-4.7-1.2c-5.8-1.4-8-4.6-8-9.5 0-7.6 5.9-10.1 11.9-10.1 6.7 0 10.8 2.6 11.4 9.1l-6 0.7c-0.2-3.4-2.1-4.9-5.8-4.9-3.5 0-5.6 1.7-5.6 4.5 0 2.4 0.9 3.9 4.3 4.7l4.4 1.1c5.6 1.5 8.8 4.2 8.8 10.1 0 7.2-5.4 9.9-12.3 9.9-7.2 0-11.4-2.3-12.3-8.4z"
     fill="#fff"
     style="fill:#ffffff;fill-opacity:1" />
  <path
     id="path74"
     class="st0"
     d="m319.1 249.3c-2.1 1.3-4.7 2-7.7 2-5.7 0-9.1-3.2-9.1-9.5v-19.8h-4.6v-5.2h4.6v-7.1l6.2-0.8v7.9h9.4v5.2h-9.5v18.5c0 3.6 1.6 5.2 4.2 5.2 2.1 0 3.5-0.6 5.3-1.8z"
     fill="#fff"
     style="fill:#ffffff;fill-opacity:1" />
  <path
     id="path76"
     class="st0"
     d="m328.2 201.5c2.4 0 4.3 1.7 4.3 4.4 0 2.5-1.9 4.4-4.3 4.4-2.2 0-4.1-1.9-4.1-4.4-0.1-2.6 1.9-4.4 4.1-4.4m3.1 48.8h-6.2v-33.7h6.2z"
     fill="#fff"
     style="fill:#ffffff;fill-opacity:1" />
  <path
     id="path78"
     class="st0"
     d="m358.4 249.3c-2.1 1.3-4.7 2-7.7 2-5.7 0-9.1-3.2-9.1-9.5v-19.8h-4.6v-5.2h4.6v-7.1l6.2-0.8v7.9h9.4v5.2h-9.5v18.5c0 3.6 1.6 5.2 4.2 5.2 2.1 0 3.5-0.6 5.3-1.8z"
     fill="#fff"
     style="fill:#ffffff;fill-opacity:1" />
  <path
     id="path80"
     class="st0"
     d="m383.3 244.2c-1.5 5-4.7 7-9.7 7-5.8 0-9.6-3.1-9.6-11.1v-23.4h6.2v22.4c0 5 1.8 7.3 5.7 7.3 3.4 0 7.3-3.3 7.3-9.8v-19.9h6.2v33.6h-5.3z"
     fill="#fff"
     style="fill:#ffffff;fill-opacity:1" />
  <path
     id="path82"
     class="st0"
     d="m416.4 249.3c-2.1 1.3-4.7 2-7.7 2-5.7 0-9.1-3.2-9.1-9.5v-19.8h-4.6v-5.2h4.6v-7.1l6.2-0.8v7.9h9.4v5.2h-9.5v18.5c0 3.6 1.6 5.2 4.2 5.2 2.1 0 3.5-0.6 5.3-1.8z"
     fill="#fff"
     style="fill:#ffffff;fill-opacity:1" />
  <path
     id="path84"
     class="st0"
     d="m441.4 240.6 5.4 1.5c-1.3 6.8-6.7 9.1-12.7 9.1-8.4 0-14.1-6.2-14.1-17.4 0-11.3 5.6-17.9 14.5-17.9 8.2 0 12.6 6 12.6 14.4 0 1.9-0.3 3.6-0.6 4.7h-20.5c0.3 6.6 3.2 11.2 8.5 11.2 3.5-0.1 5.8-1.6 6.9-5.6m-0.5-10.4c0.1-0.5 0.1-1 0.1-1.4 0-4.3-2.6-7.7-6.9-7.7-4.5 0-7.4 3.3-8 9.1z"
     fill="#fff"
     style="fill:#ffffff;fill-opacity:1" />
</svg>
